<svg xmlns="http://www.w3.org/2000/svg" viewBox="0 0 24 30" x="0px" y="0px">
    <title>UI</title>
    <g data-name="Layer 3">
        <path
            d="M12,7.5A4.5,4.5,0,1,0,16.5,12,4.505,4.505,0,0,0,12,7.5Zm0,8A3.5,3.5,0,1,1,15.5,12,3.5,3.5,0,0,1,12,15.5Z" />
        <path
            d="M21.1,9.5h-.987a8.53,8.53,0,0,0-.609-1.472l.7-.7a1.4,1.4,0,0,0,0-1.977L18.646,3.8a1.393,1.393,0,0,0-.988-.41h0a1.389,1.389,0,0,0-.988.41l-.7.7A8.5,8.5,0,0,0,14.5,3.884V2.9a1.4,1.4,0,0,0-1.4-1.4H10.9A1.4,1.4,0,0,0,9.5,2.9v.987a8.5,8.5,0,0,0-1.472.609l-.7-.7a1.389,1.389,0,0,0-.988-.41h0a1.389,1.389,0,0,0-.987.41L3.8,5.355a1.4,1.4,0,0,0,0,1.976l.7.7A8.53,8.53,0,0,0,3.884,9.5H2.9a1.4,1.4,0,0,0-1.4,1.4V13.1a1.4,1.4,0,0,0,1.4,1.4h.987a8.53,8.53,0,0,0,.609,1.472l-.7.7a1.4,1.4,0,0,0,0,1.977L5.354,20.2a1.393,1.393,0,0,0,.988.41h0a1.393,1.393,0,0,0,.988-.41l.7-.7a8.5,8.5,0,0,0,1.472.609V21.1a1.4,1.4,0,0,0,1.4,1.4H13.1a1.4,1.4,0,0,0,1.4-1.4v-.987a8.5,8.5,0,0,0,1.472-.609l.7.7a1.389,1.389,0,0,0,.988.41h0a1.389,1.389,0,0,0,.987-.41L20.2,18.645a1.4,1.4,0,0,0,0-1.976l-.7-.7a8.53,8.53,0,0,0,.609-1.472H21.1a1.4,1.4,0,0,0,1.4-1.4V10.9A1.4,1.4,0,0,0,21.1,9.5Zm.4,3.6a.4.4,0,0,1-.4.4H19.738a.5.5,0,0,0-.484.375,7.459,7.459,0,0,1-.8,1.928.5.5,0,0,0,.077.608l.965.965a.4.4,0,0,1,0,.562l-1.56,1.56a.4.4,0,0,1-.28.116.4.4,0,0,1-.281-.117l-.965-.964a.5.5,0,0,0-.607-.077,7.432,7.432,0,0,1-1.929.8.5.5,0,0,0-.375.485V21.1a.4.4,0,0,1-.4.4H10.9a.4.4,0,0,1-.4-.4V19.738a.5.5,0,0,0-.375-.485,7.432,7.432,0,0,1-1.929-.8.5.5,0,0,0-.254-.07.5.5,0,0,0-.353.147l-.965.964a.395.395,0,0,1-.561,0L4.5,17.938a.4.4,0,0,1,0-.562l.965-.965a.5.5,0,0,0,.077-.608,7.459,7.459,0,0,1-.8-1.928.5.5,0,0,0-.484-.375H2.9a.4.4,0,0,1-.4-.4V10.9a.4.4,0,0,1,.4-.4H4.262a.5.5,0,0,0,.484-.375,7.459,7.459,0,0,1,.8-1.928.5.5,0,0,0-.077-.608L4.5,6.624a.4.4,0,0,1,0-.562L6.063,4.5a.4.4,0,0,1,.28-.116.4.4,0,0,1,.281.117l.965.964a.5.5,0,0,0,.607.077,7.432,7.432,0,0,1,1.929-.8.5.5,0,0,0,.375-.485V2.9a.4.4,0,0,1,.4-.4H13.1a.4.4,0,0,1,.4.4V4.262a.5.5,0,0,0,.375.485,7.432,7.432,0,0,1,1.929.8.5.5,0,0,0,.607-.077l.965-.964a.4.4,0,0,1,.281-.117.4.4,0,0,1,.281.117L19.5,6.062a.4.4,0,0,1,0,.562l-.965.965a.5.5,0,0,0-.077.608,7.459,7.459,0,0,1,.8,1.928.5.5,0,0,0,.484.375H21.1a.4.4,0,0,1,.4.4Z" />
    </g>
    <text x="0" y="39" fill="#000000" font-size="5px" font-weight="bold"
        font-family="'Helvetica Neue', Helvetica, Arial-Unicode, Arial, Sans-serif">Created by Ilham
        Fitrotul Hayat
    </text>
    <text x="0" y="44" fill="#000000" font-size="5px" font-weight="bold"
        font-family="'Helvetica Neue', Helvetica, Arial-Unicode, Arial, Sans-serif">from the Noun
        Project
    </text>
</svg>